# xmcd CD database file
#
# Track frame offsets:
#	150
#	10837
#	27230
#	43495
#	70660
#	89650
#	108610
#	121577
#	139159
#	159440
#
# Disc length: 2293 seconds
#
# Revision: 0
# Processed by: cddbd v1.5.2PL0 Copyright (c) Steve Scherf et al.
# Submitted via: CDex 1.70beta2
#
DISCID=8308f30a
DTITLE=Edson Diniz - Blues Orantes
DYEAR=2003
DGENRE=Blues
TTITLE0=Ave Maria Groove
TTITLE1=Famílias Missionárias
TTITLE2=Mistério da Bondade
TTITLE3=João Batista
TTITLE4=Magnificat Blues
TTITLE5=Dom de Deus, Direito de Todos
TTITLE6=São Francisco Blues
TTITLE7=Glória Black
TTITLE8=Aclamablues
TTITLE9=Pai Nosso Blues
EXTD=YEAR: 2003
EXTT0=
EXTT1=
EXTT2=
EXTT3=
EXTT4=
EXTT5=
EXTT6=
EXTT7=
EXTT8=
EXTT9=
PLAYORDER=
